<?xml version="1.0" encoding="UTF-8" standalone="no"?>
<!DOCTYPE svg PUBLIC "-//W3C//DTD SVG 1.1//EN"
 "http://www.w3.org/Graphics/SVG/1.1/DTD/svg11.dtd">
<!-- Generated by graphviz version 9.0.0 (20230911.1827)
 -->
<!-- Title: G Pages: 1 -->
<svg width="361pt" height="532pt"
 viewBox="0.00 0.00 360.50 531.50" xmlns="http://www.w3.org/2000/svg" xmlns:xlink="http://www.w3.org/1999/xlink">
<g id="graph0" class="graph" transform="scale(1 1) rotate(0) translate(4 527.5)">
<title>G</title>
<polygon fill="white" stroke="none" points="-4,4 -4,-527.5 356.5,-527.5 356.5,4 -4,4"/>
<!-- random_placement -->
<g id="node1" class="node">
<title>random_placement</title>
<polygon fill="none" stroke="blue" points="324,-523.5 108,-523.5 108,-451.5 324,-451.5 324,-523.5"/>
<text text-anchor="middle" x="216" y="-498.95" font-family="Times,serif" font-size="14.00" fill="blue">random placement</text>
<text text-anchor="middle" x="216" y="-482.45" font-family="Times,serif" font-size="14.00" fill="blue">on grid of NxN</text>
<text text-anchor="middle" x="216" y="-465.95" font-family="Times,serif" font-size="14.00" fill="blue">(x, y)</text>
</g>
<!-- direction_bomb -->
<g id="node2" class="node">
<title>direction_bomb</title>
<polygon fill="none" stroke="blue" points="324,-414.5 108,-414.5 108,-342.5 324,-342.5 324,-414.5"/>
<text text-anchor="middle" x="216" y="-389.95" font-family="Times,serif" font-size="14.00" fill="blue">given direction bomb</text>
<text text-anchor="middle" x="216" y="-373.45" font-family="Times,serif" font-size="14.00" fill="blue">will be relative to</text>
<text text-anchor="middle" x="216" y="-356.95" font-family="Times,serif" font-size="14.00" fill="blue">batman current position</text>
</g>
<!-- random_placement&#45;&gt;direction_bomb -->
<g id="edge1" class="edge">
<title>random_placement&#45;&gt;direction_bomb</title>
<path fill="none" stroke="black" d="M216,-451.17C216,-443.13 216,-434.48 216,-426.05"/>
<polygon fill="black" stroke="black" points="219.5,-426.31 216,-416.31 212.5,-426.31 219.5,-426.31"/>
</g>
<!-- calculate_interval -->
<g id="node3" class="node">
<title>calculate_interval</title>
<polygon fill="none" stroke="blue" points="216,-305.5 0,-305.5 0,-233.5 216,-233.5 216,-305.5"/>
<text text-anchor="middle" x="108" y="-280.95" font-family="Times,serif" font-size="14.00" fill="blue">calculate interval bomb</text>
<text text-anchor="middle" x="108" y="-264.45" font-family="Times,serif" font-size="14.00" fill="blue">could be and exclude</text>
<text text-anchor="middle" x="108" y="-247.95" font-family="Times,serif" font-size="14.00" fill="blue">others</text>
</g>
<!-- direction_bomb&#45;&gt;calculate_interval -->
<g id="edge2" class="edge">
<title>direction_bomb&#45;&gt;calculate_interval</title>
<path fill="none" stroke="black" d="M180.34,-342.17C171.12,-333.04 161.1,-323.1 151.53,-313.62"/>
<polygon fill="black" stroke="black" points="154.27,-311.41 144.7,-306.86 149.34,-316.38 154.27,-311.41"/>
</g>
<!-- jump_to_middle -->
<g id="node4" class="node">
<title>jump_to_middle</title>
<polygon fill="none" stroke="blue" points="288,-196.5 72,-196.5 72,-124.5 288,-124.5 288,-196.5"/>
<text text-anchor="middle" x="180" y="-163.7" font-family="Times,serif" font-size="14.00" fill="blue">jump to middle of</text>
<text text-anchor="middle" x="180" y="-147.2" font-family="Times,serif" font-size="14.00" fill="blue">interval</text>
</g>
<!-- calculate_interval&#45;&gt;jump_to_middle -->
<g id="edge3" class="edge">
<title>calculate_interval&#45;&gt;jump_to_middle</title>
<path fill="none" stroke="black" d="M131.78,-233.17C137.55,-224.58 143.8,-215.29 149.83,-206.34"/>
<polygon fill="black" stroke="black" points="152.73,-208.3 155.4,-198.05 146.92,-204.39 152.73,-208.3"/>
</g>
<!-- jump_to_middle&#45;&gt;direction_bomb -->
<g id="edge4" class="edge">
<title>jump_to_middle&#45;&gt;direction_bomb</title>
<path fill="none" stroke="black" d="M207.61,-196.97C214.7,-208.06 221.34,-220.75 225,-233.5 234.07,-265.14 231.46,-302.23 226.77,-330.85"/>
<polygon fill="black" stroke="black" points="223.33,-330.21 225,-340.67 230.22,-331.45 223.33,-330.21"/>
<text text-anchor="middle" x="291.75" y="-264.45" font-family="Times,serif" font-size="14.00">while bomb not found</text>
</g>
<!-- bomb_found -->
<g id="node5" class="node">
<title>bomb_found</title>
<polygon fill="none" stroke="blue" points="288,-72 72,-72 72,0 288,0 288,-72"/>
<text text-anchor="middle" x="180" y="-30.95" font-family="Times,serif" font-size="14.00" fill="blue">End</text>
</g>
<!-- jump_to_middle&#45;&gt;bomb_found -->
<g id="edge5" class="edge">
<title>jump_to_middle&#45;&gt;bomb_found</title>
<path fill="none" stroke="black" d="M180,-124.07C180,-111.5 180,-97.15 180,-83.78"/>
<polygon fill="black" stroke="black" points="183.5,-83.87 180,-73.87 176.5,-83.87 183.5,-83.87"/>
<text text-anchor="middle" x="219.38" y="-93.2" font-family="Times,serif" font-size="14.00">if bomb found</text>
</g>
</g>
</svg>
